#!OML:ASF F:\VICON\USERDATA\INSTALL\rory3\rory3.ASF
:FULLY-SPECIFIED
:DEGREES
536
root -10.3835 16.7442 9.61357 10.474 -38.5881 -5.0037
lowerback 26.9281 -0.156592 -2.92272
upperback 4.75413 -1.16347 0.165136
thorax -9.56511 -0.522371 2.27929
lowerneck -20.7515 -0.44456 -9.40168
upperneck 34.8559 1.58292 2.86687
head 15.7462 -0.321082 3.13918
rclavicle -2.18663e-014 -3.26007e-014
rhumerus -24.2576 3.9826 -86.1067
rradius 67.9901
rwrist -8.56972
rhand -27.28 12.8694
rfingers 7.12502
rthumb -0.690529 -17.1092
lclavicle -2.18663e-014 -3.26007e-014
lhumerus -7.50513 -23.6908 88.6627
lradius 63.5582
lwrist 2.38669
lhand -24.4455 35.1234
lfingers 7.12502
lthumb 2.04714 65.0933
rfemur -41.0924 -20.1007 27.3789
rtibia 65.0881
rfoot -14.2828 0.902443
rtoes -4.32683
lfemur -39.5158 21.3738 -17.9402
ltibia 57.8054
lfoot -18.2754 -11.6945
ltoes -7.62575
537
root -10.3906 16.8602 9.64553 10.4445 -38.5619 -5.07888
lowerback 26.5782 -0.111669 -2.81319
upperback 4.55768 -1.05609 0.197643
thorax -9.61591 -0.468656 2.21146
lowerneck -20.4851 -0.497307 -9.61675
upperneck 35.0969 1.49918 3.00268
head 15.8061 -0.377922 3.22295
rclavicle 4.65156e-014 -1.27222e-014
rhumerus -24.303 4.62224 -86.3672
rradius 68.3846
rwrist -8.65038
rhand -26.9861 12.9663
rfingers 7.12502
rthumb -0.406637 -17.0131
lclavicle 4.65156e-014 -1.27222e-014
lhumerus -8.63617 -23.9343 88.9754
lradius 64.3569
lwrist 1.63715
lhand -24.6354 34.3263
lfingers 7.12502
lthumb 1.86365 64.2979
rfemur -39.7752 -19.9147 27.2736
rtibia 63.1891
rfoot -14.0659 0.555158
rtoes -5.60852
lfemur -37.9777 21.0009 -17.898
ltibia 55.4873
lfoot -18.0564 -11.0129
ltoes -7.3684
538
root -10.398 16.949 9.68208 10.2153 -38.5331 -4.98467
lowerback 26.2681 -0.0565491 -2.82081
upperback 4.44647 -0.975408 0.188324
thorax -9.58671 -0.428168 2.17362
lowerneck -20.358 -0.548647 -9.67093
upperneck 35.2824 1.44498 2.95313
head 15.8744 -0.424746 3.20465
rclavicle -1.23246e-014 2.54444e-014
rhumerus -24.2736 5.37728 -86.6023
rradius 68.8964
rwrist -8.99005
rhand -26.9066 12.8474
rfingers 7.12502
rthumb -0.329882 -17.1321
lclavicle -1.23246e-014 2.54444e-014
lhumerus -9.70012 -24.0504 89.2266
lradius 65.2571
lwrist 0.518927
lhand -25.7083 33.67
lfingers 7.12502
lthumb 0.827472 63.6481
rfemur -38.4467 -19.7938 26.9733
rtibia 61.4485
rfoot -13.9915 0.246807
rtoes -6.72245
lfemur -36.4115 20.5541 -17.9592
ltibia 53.2872
lfoot -17.9315 -10.2308
ltoes -7.63491
539
root -10.4091 17.0542 9.71794 9.9789 -38.4558 -4.79006
lowerback 25.79 0.0157575 -2.90546
upperback 4.3462 -0.888642 0.162414
thorax -9.45688 -0.384385 2.15705
lowerneck -20.0958 -0.61712 -9.73459
upperneck 35.3704 1.33669 2.94126
head 15.8665 -0.484455 3.18931
rclavicle 3.77691e-014 3.18055e-015
rhumerus -24.209 6.01818 -86.8606
rradius 69.3384
rwrist -9.34837
rhand -26.7306 12.807
rfingers 7.12502
rthumb -0.159886 -17.1727
lclavicle 3.77691e-014 3.18055e-015
lhumerus -10.7025 -24.2345 89.4993
lradius 66.08
lwrist -0.609046
lhand -26.4005 33.1521
lfingers 7.12502
lthumb 0.158941 63.1318
rfemur -37.1141 -19.6191 26.597
rtibia 59.6722
rfoot -13.8818 -0.0605122
rtoes -7.50055
lfemur -34.8407 20.0016 -18.0874
ltibia 51.0034
lfoot -17.6318 -9.61297
ltoes -7.49302
540
root -10.4194 17.1544 9.7549 9.86897 -38.3647 -4.76308
lowerback 25.27 0.0567568 -2.84204
upperback 4.22445 -0.795014 0.18582
thorax -9.33013 -0.340499 2.10849
lowerneck -19.7814 -0.670697 -9.85444
upperneck 35.4787 1.26726 2.92005
head 15.8533 -0.538469 3.18672
rclavicle -8.78628e-014 3.4191e-014
rhumerus -24.0964 6.68779 -87.1032
rradius 69.6799
rwrist -9.63095
rhand -26.3015 12.7106
rfingers 7.12502
rthumb 0.254554 -17.269
lclavicle -8.78628e-014 3.4191e-014
lhumerus -11.7048 -24.4543 89.8308
lradius 66.8447
lwrist -1.55775
lhand -26.8643 32.6237
lfingers 7.12502
lthumb -0.289037 62.6032
rfemur -35.8384 -19.3873 26.3538
rtibia 57.9538
rfoot -13.7057 -0.244792
rtoes -7.3891
lfemur -33.3244 19.3932 -18.0644
ltibia 48.7186
lfoot -17.2985 -9.00015
ltoes -6.74699
